# xmcd CD database file generated by Grip 3.2.0
# 
# Track frame offsets:
#       150
#       9973
#       23778
#       35950
#       54237
#       67131
#       81282
#       95064
#       112308
#       130540
# 
# Disc length: 1914 seconds
# 
# Revision: 4
# Processed by: cddbd v1.5.2PL0 Copyright (c) Steve Scherf et al.
# Submitted via: Grip 3.2.0
# 
DISCID=8607780a
DTITLE=Count Basie - Swing is King again
DYEAR=1998
DGENRE=Jazz
TTITLE0=Hittin' Twelve
TTITLE1=All Of Me
TTITLE2=April In Paris
TTITLE3=Lester Leaps In
TTITLE4=Shorty George
TTITLE5=Swinging The Blues
TTITLE6=Sent For You Yesterday
TTITLE7=920 Special
TTITLE8=Dickie´s Dream
TTITLE9=Out of The Window
EXTD=nelly\n YEAR: 1998
EXTT0=
EXTT1=
EXTT2=
EXTT3=
EXTT4=
EXTT5=
EXTT6=
EXTT7=
EXTT8=
EXTT9=
PLAYORDER=
